:SAMPLES-PER-SECOND 30
:FULLY-SPECIFIED
:DEGREES
435
root  45.3702 30.8802 -13.426 -164.122 10.3852 -169.245
RightUpLeg  -39.6074 -2.25155 -4.47549
RightLeg  6.01301 -0.613018 -0.0236071
RightFoot  0.000831817 2.99345e-006 -0.0189419
RightToes  -47.7988 -0.283585 -0.354808
Spine  5.41018 -2.02959 1.2998
Spine1  10.6153 -4.47079 2.52453
HEad  33.0297 19.0528 1.51036
LeftShoulder1  0 -2.42657e-020 -4.95415e-022
LeftArm  -40.3387 39.1501 -96.973
LeftForeArm  -58.3754 -77.27 -130.394
LeftHand  1.91897 -2.00428 -88.0777
RightShoulder  0 2.42657e-020 1.07489e-018
RightArm  -35.8251 -37.0555 70.2157
RightForeArm  32.7024 56.2599 15.3633
RightHand  -0.313633 23.8348 -1.11626
LeftUpLeg  7.86357 -7.84516 -3.12542
LeftLeg  31.6864 -7.17853 -3.80599
LeftFoot  -2.12793 0.00482025 0.259536
LeftToes  15.7801 1.18758e-006 1.19596e-007
436
root  46.894 30.0191 -15.8793 -166.514 6.59241 -168.959
RightUpLeg  -42.1647 -5.12856 -1.67117
RightLeg  16.0132 -0.673346 -0.14689
RightFoot  -1.89619 -0.00629481 -0.00282751
RightToes  -46.2684 -0.270394 -0.347725
Spine  5.80077 -3.14458 1.62989
Spine1  11.2788 -6.7926 3.08797
HEad  34.2453 22.7207 -0.234813
LeftShoulder1  0 -2.42657e-020 -4.95415e-022
LeftArm  -45.3288 31.3266 -96.3489
LeftForeArm  -102.655 -80.1104 -79.5241
LeftHand  2.45646 -2.5898 -87.4962
RightShoulder  0 2.42657e-020 1.07489e-018
RightArm  -32.5617 -34.9239 69.5064
RightForeArm  33.5546 56.3899 15.4409
RightHand  -0.382492 23.5694 -1.46356
LeftUpLeg  11.3135 -7.15588 -0.25488
LeftLeg  36.7556 -5.72107 -3.71913
LeftFoot  2.08321 0.0057905 -0.318493
LeftToes  1.04553 1.18758e-006 1.19596e-007
437
root  48.2986 28.9885 -18.1764 -168.61 3.39009 -168.676
RightUpLeg  -46.4937 -2.74217 -2.87941
RightLeg  33.465 2.39927 1.35975
RightFoot  6.83764 0.00881815 0.229918
RightToes  -52.2679 -0.323128 -0.373443
Spine  5.87265 -3.25861 2.03239
Spine1  11.2321 -7.14477 3.91564
HEad  37.1508 24.507 -1.77611
LeftShoulder1  0 -2.42657e-020 -4.95415e-022
LeftArm  -42.0935 20.8704 -91.3408
LeftForeArm  -150.381 -67.6101 -24.3826
LeftHand  5.31624 -5.94398 -84.0447
RightShoulder  0 2.42657e-020 1.07489e-018
RightArm  -30.0557 -32.762 69.5357
RightForeArm  33.1601 55.6099 14.981
RightHand  -0.454872 23.5369 -1.81357
LeftUpLeg  10.8774 -6.15432 2.68734
LeftLeg  47.0019 -3.29926 -3.11321
LeftFoot  9.24337 0.0695 -0.859727
LeftToes  -17.1528 1.18758e-006 1.19596e-007
438
root  49.3762 28.234 -20.3161 -171.559 -0.67414 -166.812
RightUpLeg  -47.08 -5.9853 -0.0516352
RightLeg  47.0127 2.04478 1.89005
RightFoot  6.68185 0.0115341 0.179949
RightToes  -50.8582 -0.3105 -0.367898
Spine  6.72293 -3.25082 3.08101
Spine1  12.6781 -7.27697 5.7953
HEad  39.2564 24.03 -1.99892
LeftShoulder1  0 -2.42657e-020 -4.95415e-022
LeftArm  -36.5658 6.74558 -86.4235
LeftForeArm  -147.671 -43.0202 -8.94659
LeftHand  9.75711 -12.8245 -74.8309
RightShoulder  0 2.42657e-020 1.07489e-018
RightArm  -27.7433 -24.5465 69.704
RightForeArm  30.573 47.82 11.2435
RightHand  -0.351768 23.641 -1.31103
LeftUpLeg  6.32215 -8.82372 4.13676
LeftLeg  63.4417 -1.61152 -2.7739
LeftFoot  14.8754 0.131335 -1.00602
LeftToes  -19.4992 1.18758e-006 1.19596e-007
439
root  50.2869 27.5951 -21.9795 -171.538 -4.54106 -164.936
RightUpLeg  -48.113 -9.39713 3.25673
RightLeg  55.0846 1.3791 1.66266
RightFoot  -1.17071 -0.00611257 -0.22087
RightToes  -49.9343 -0.302299 -0.364097
Spine  7.50429 -3.43048 4.492
Spine1  13.4708 -8.23422 8.67079
HEad  39.0614 23.5806 -4.4751
LeftShoulder1  0 -2.42657e-020 -4.95415e-022
LeftArm  -27.5774 -5.8985 -82.6639
LeftForeArm  -136.8 -24.6506 -4.22482
LeftHand  11.7782 -24.1489 -51.8679
RightShoulder  0 2.42657e-020 1.07489e-018
RightArm  -25.6055 -12.4054 69.8526
RightForeArm  29.5549 38.145 7.96265
RightHand  -0.00942902 23.766 0.325287
LeftUpLeg  -5.00394 -11.201 4.79163
LeftLeg  81.5255 -1.37995 -6.41089
LeftFoot  7.45723 0.0770831 -1.18279
LeftToes  -19.7602 1.18758e-006 1.19596e-007
440
root  51.029 27.2562 -23.5444 -171.686 -5.30167 -162.85
RightUpLeg  -47.3655 -6.52165 5.57872
RightLeg  59.485 -0.672559 -1.07453
RightFoot  -6.42301 -0.023569 -0.042503
RightToes  -48.4816 -0.28953 -0.357854
Spine  9.09374 -2.2985 5.94658
Spine1  16.2133 -6.08291 9.7162
HEad  37.3644 24.8317 -6.61387
LeftShoulder1  0 -2.42657e-020 -4.95415e-022
LeftArm  -21.8188 -13.0613 -81.8217
LeftForeArm  -132.61 -17.3472 -2.76988
LeftHand  8.36302 -29.2099 -31.7224
RightShoulder  0 2.42657e-020 1.07489e-018
RightArm  -21.1579 -0.203177 69.7261
RightForeArm  30.0867 32.794 6.52008
RightHand  0.258215 24.3425 1.56757
LeftUpLeg  -16.2214 -8.37295 5.2794
LeftLeg  94.1196 0.0365818 -3.88107
LeftFoot  0.102209 0.000287483 -0.32233
LeftToes  -17.394 1.18758e-006 1.19596e-007
